<?xml version="1.0" encoding="UTF-8" ?>
<!DOCTYPE svg PUBLIC "-//W3C//DTD SVG 1.1//EN" "http://www.w3.org/Graphics/SVG/1.1/DTD/svg11.dtd">
<svg width="800pt" height="800pt" viewBox="0 0 800 800" version="1.1" xmlns="http://www.w3.org/2000/svg">
<path fill="#19212c" d=" M 0.00 0.00 L 800.00 0.00 L 800.00 800.00 L 0.00 800.00 L 0.00 0.00 Z" />
<path fill="#3aa7e1" d=" M 370.42 215.49 C 390.61 195.30 410.73 175.03 431.02 154.93 C 435.70 157.24 440.03 160.70 442.36 165.47 C 443.98 168.72 444.26 172.43 444.24 176.01 C 444.19 189.21 444.23 202.40 444.20 215.60 C 473.80 215.46 503.39 215.59 532.99 215.53 C 544.85 214.61 554.18 226.11 554.56 237.25 C 554.77 245.14 554.61 253.04 554.67 260.93 C 554.56 268.28 555.15 275.79 553.15 282.96 C 550.72 292.18 546.96 301.35 540.47 308.48 C 516.14 337.75 491.03 366.36 466.44 395.40 C 432.08 435.46 397.85 475.62 363.49 515.67 C 418.31 515.79 473.14 515.69 527.96 515.72 C 533.51 515.78 539.39 515.10 544.59 517.54 C 552.00 521.38 556.59 529.69 556.70 537.95 C 556.83 545.62 556.69 553.30 556.75 560.98 C 556.77 566.51 557.05 572.34 554.46 577.42 C 551.55 584.30 544.73 589.81 537.04 589.62 C 506.23 589.58 475.41 589.67 444.60 589.57 C 424.94 608.95 405.61 628.66 385.98 648.07 C 385.02 649.44 383.36 648.69 382.16 648.15 C 375.86 644.80 370.54 638.45 370.56 631.02 C 370.58 617.22 370.56 603.41 370.58 589.61 C 343.03 589.63 315.49 589.60 287.94 589.62 C 284.66 589.57 281.23 589.95 278.13 588.67 C 271.11 585.99 266.02 579.28 264.61 571.99 C 263.28 566.08 263.86 560.00 263.75 554.01 C 263.91 542.67 262.89 531.09 266.03 520.04 C 269.53 506.84 277.00 495.08 285.81 484.80 C 336.95 423.91 388.04 362.99 439.17 302.10 C 442.64 297.86 446.29 293.77 449.65 289.45 C 393.12 289.51 336.58 289.45 280.04 289.48 C 272.44 289.41 265.95 283.92 262.75 277.33 C 259.80 270.96 259.33 263.84 259.66 256.92 C 260.04 248.59 258.53 239.98 261.30 231.92 C 263.34 224.44 269.19 217.46 277.04 215.91 C 280.65 215.25 284.34 215.59 287.99 215.54 C 315.47 215.51 342.94 215.60 370.42 215.49 Z" />
</svg>
